<svg xmlns="http://www.w3.org/2000/svg" xmlns:xlink="http://www.w3.org/1999/xlink" width="24" height="24" preserveAspectRatio="xMidYMid meet" viewBox="0 0 24 24" style="-ms-transform: rotate(360deg); -webkit-transform: rotate(360deg); transform: rotate(360deg);"><g fill="none"><path d="M8 6a2 2 0 1 1-4 0a2 2 0 0 1 4 0z" fill="currentColor"/><path d="M8 12a2 2 0 1 1-4 0a2 2 0 0 1 4 0z" fill="currentColor"/><path d="M6 20a2 2 0 1 0 0-4a2 2 0 0 0 0 4z" fill="currentColor"/><path d="M14 6a2 2 0 1 1-4 0a2 2 0 0 1 4 0z" fill="currentColor"/><path d="M12 14a2 2 0 1 0 0-4a2 2 0 0 0 0 4z" fill="currentColor"/><path d="M14 18a2 2 0 1 1-4 0a2 2 0 0 1 4 0z" fill="currentColor"/><path d="M18 8a2 2 0 1 0 0-4a2 2 0 0 0 0 4z" fill="currentColor"/><path d="M20 12a2 2 0 1 1-4 0a2 2 0 0 1 4 0z" fill="currentColor"/><path d="M18 20a2 2 0 1 0 0-4a2 2 0 0 0 0 4z" fill="currentColor"/></g></svg>